<mxfile host="app.diagrams.net" modified="2021-09-03T08:41:30.498Z" agent="5.0 (Windows NT 10.0; Win64; x64) AppleWebKit/537.36 (KHTML, like Gecko) Chrome/92.0.4515.159 Safari/537.36" etag="BhXHyYXnf7UYe988iIH7" version="15.0.4" type="github">
  <diagram id="kgpKYQtTHZ0yAKxKKP6v" name="Page-1">
    <mxGraphModel dx="1198" dy="693" grid="1" gridSize="10" guides="1" tooltips="1" connect="1" arrows="1" fold="1" page="1" pageScale="1" pageWidth="850" pageHeight="1100" math="0" shadow="0">
      <root>
        <mxCell id="0" />
        <mxCell id="1" parent="0" />
        <mxCell id="Fti2TQM5drp5zfrg5HiU-7" value="" style="shape=umlLifeline;participant=umlActor;perimeter=lifelinePerimeter;whiteSpace=wrap;html=1;container=1;collapsible=0;recursiveResize=0;verticalAlign=top;spacingTop=36;outlineConnect=0;" parent="1" vertex="1">
          <mxGeometry x="130" y="70" width="25" height="1290" as="geometry" />
        </mxCell>
        <mxCell id="Fti2TQM5drp5zfrg5HiU-11" value="1.0&amp;nbsp; Click game&amp;nbsp;" style="html=1;verticalAlign=bottom;startArrow=oval;startFill=1;endArrow=block;startSize=8;" parent="Fti2TQM5drp5zfrg5HiU-7" target="Fti2TQM5drp5zfrg5HiU-8" edge="1">
          <mxGeometry x="0.0031" width="60" relative="1" as="geometry">
            <mxPoint x="10" y="80" as="sourcePoint" />
            <mxPoint x="70" y="80" as="targetPoint" />
            <mxPoint as="offset" />
          </mxGeometry>
        </mxCell>
        <mxCell id="rWefZl4mdB9mLyS-mqyO-17" value="3.0 chose new character" style="html=1;verticalAlign=bottom;endArrow=block;" edge="1" parent="Fti2TQM5drp5zfrg5HiU-7" target="Fti2TQM5drp5zfrg5HiU-8">
          <mxGeometry x="0.0031" y="10" width="80" relative="1" as="geometry">
            <mxPoint x="10" y="490" as="sourcePoint" />
            <mxPoint x="90" y="480" as="targetPoint" />
            <Array as="points">
              <mxPoint x="110" y="490" />
            </Array>
            <mxPoint as="offset" />
          </mxGeometry>
        </mxCell>
        <mxCell id="rWefZl4mdB9mLyS-mqyO-22" value="3.1.2 Display available character" style="html=1;verticalAlign=bottom;endArrow=open;dashed=1;endSize=8;" edge="1" parent="Fti2TQM5drp5zfrg5HiU-7" source="Fti2TQM5drp5zfrg5HiU-9">
          <mxGeometry x="0.0257" relative="1" as="geometry">
            <mxPoint x="100" y="610" as="sourcePoint" />
            <mxPoint x="20" y="610" as="targetPoint" />
            <Array as="points">
              <mxPoint x="220" y="610" />
            </Array>
            <mxPoint as="offset" />
          </mxGeometry>
        </mxCell>
        <mxCell id="rWefZl4mdB9mLyS-mqyO-23" value="4.0 Chose game character" style="html=1;verticalAlign=bottom;endArrow=block;" edge="1" parent="Fti2TQM5drp5zfrg5HiU-7" target="Fti2TQM5drp5zfrg5HiU-8">
          <mxGeometry width="80" relative="1" as="geometry">
            <mxPoint x="10" y="650" as="sourcePoint" />
            <mxPoint x="90" y="650" as="targetPoint" />
          </mxGeometry>
        </mxCell>
        <mxCell id="rWefZl4mdB9mLyS-mqyO-46" value="7.0 Exit game" style="html=1;verticalAlign=bottom;startArrow=circle;startFill=1;endArrow=open;startSize=6;endSize=8;" edge="1" parent="Fti2TQM5drp5zfrg5HiU-7" target="Fti2TQM5drp5zfrg5HiU-8">
          <mxGeometry width="80" relative="1" as="geometry">
            <mxPoint x="10" y="1100" as="sourcePoint" />
            <mxPoint x="90" y="1100" as="targetPoint" />
          </mxGeometry>
        </mxCell>
        <mxCell id="Fti2TQM5drp5zfrg5HiU-8" value="PacMan Game" style="shape=umlLifeline;perimeter=lifelinePerimeter;whiteSpace=wrap;html=1;container=1;collapsible=0;recursiveResize=0;outlineConnect=0;" parent="1" vertex="1">
          <mxGeometry x="250" y="70" width="100" height="1290" as="geometry" />
        </mxCell>
        <mxCell id="rWefZl4mdB9mLyS-mqyO-19" value="3.1 Display new character" style="html=1;verticalAlign=bottom;endArrow=block;" edge="1" parent="Fti2TQM5drp5zfrg5HiU-8" target="Fti2TQM5drp5zfrg5HiU-9">
          <mxGeometry x="0.0501" y="20" width="80" relative="1" as="geometry">
            <mxPoint x="50" y="510" as="sourcePoint" />
            <mxPoint x="140" y="520" as="targetPoint" />
            <mxPoint as="offset" />
          </mxGeometry>
        </mxCell>
        <mxCell id="rWefZl4mdB9mLyS-mqyO-24" value="" style="html=1;points=[];perimeter=orthogonalPerimeter;" vertex="1" parent="Fti2TQM5drp5zfrg5HiU-8">
          <mxGeometry x="55" y="690" width="10" height="40" as="geometry" />
        </mxCell>
        <mxCell id="rWefZl4mdB9mLyS-mqyO-25" value="4.1 Character selected&lt;br&gt;display start game" style="edgeStyle=orthogonalEdgeStyle;html=1;align=left;spacingLeft=2;endArrow=block;rounded=0;entryX=1;entryY=0;" edge="1" target="rWefZl4mdB9mLyS-mqyO-24" parent="Fti2TQM5drp5zfrg5HiU-8">
          <mxGeometry relative="1" as="geometry">
            <mxPoint x="50" y="670" as="sourcePoint" />
            <Array as="points">
              <mxPoint x="90" y="670" />
            </Array>
          </mxGeometry>
        </mxCell>
        <mxCell id="rWefZl4mdB9mLyS-mqyO-37" value="" style="html=1;points=[];perimeter=orthogonalPerimeter;" vertex="1" parent="Fti2TQM5drp5zfrg5HiU-8">
          <mxGeometry x="45" y="930" width="10" height="140" as="geometry" />
        </mxCell>
        <mxCell id="Fti2TQM5drp5zfrg5HiU-9" value="PacMan Server" style="shape=umlLifeline;perimeter=lifelinePerimeter;whiteSpace=wrap;html=1;container=1;collapsible=0;recursiveResize=0;outlineConnect=0;" parent="1" vertex="1">
          <mxGeometry x="470" y="70" width="100" height="1290" as="geometry" />
        </mxCell>
        <mxCell id="rWefZl4mdB9mLyS-mqyO-7" value="" style="html=1;points=[];perimeter=orthogonalPerimeter;" vertex="1" parent="Fti2TQM5drp5zfrg5HiU-9">
          <mxGeometry x="50" y="310" width="10" height="40" as="geometry" />
        </mxCell>
        <mxCell id="rWefZl4mdB9mLyS-mqyO-8" value="Character available&lt;br&gt;display start game" style="edgeStyle=orthogonalEdgeStyle;html=1;align=left;spacingLeft=2;endArrow=block;rounded=0;entryX=1;entryY=0;" edge="1" target="rWefZl4mdB9mLyS-mqyO-7" parent="Fti2TQM5drp5zfrg5HiU-9">
          <mxGeometry relative="1" as="geometry">
            <mxPoint x="55" y="290" as="sourcePoint" />
            <Array as="points">
              <mxPoint x="85" y="290" />
            </Array>
          </mxGeometry>
        </mxCell>
        <mxCell id="rWefZl4mdB9mLyS-mqyO-20" value="" style="html=1;points=[];perimeter=orthogonalPerimeter;" vertex="1" parent="Fti2TQM5drp5zfrg5HiU-9">
          <mxGeometry x="55" y="560" width="10" height="40" as="geometry" />
        </mxCell>
        <mxCell id="rWefZl4mdB9mLyS-mqyO-21" value="3.1.1 Display available character" style="edgeStyle=orthogonalEdgeStyle;html=1;align=left;spacingLeft=2;endArrow=block;rounded=0;entryX=1;entryY=0;" edge="1" target="rWefZl4mdB9mLyS-mqyO-20" parent="Fti2TQM5drp5zfrg5HiU-9">
          <mxGeometry relative="1" as="geometry">
            <mxPoint x="50" y="540" as="sourcePoint" />
            <Array as="points">
              <mxPoint x="90" y="540" />
            </Array>
          </mxGeometry>
        </mxCell>
        <mxCell id="rWefZl4mdB9mLyS-mqyO-40" value="" style="html=1;points=[];perimeter=orthogonalPerimeter;" vertex="1" parent="Fti2TQM5drp5zfrg5HiU-9">
          <mxGeometry x="35" y="950" width="10" height="80" as="geometry" />
        </mxCell>
        <mxCell id="Fti2TQM5drp5zfrg5HiU-16" value="1.1 Show game dashboard" style="html=1;verticalAlign=bottom;startArrow=oval;startFill=1;endArrow=block;startSize=8;" parent="1" source="Fti2TQM5drp5zfrg5HiU-8" edge="1" target="Fti2TQM5drp5zfrg5HiU-9">
          <mxGeometry x="0.2795" y="10" width="60" relative="1" as="geometry">
            <mxPoint x="300" y="200" as="sourcePoint" />
            <mxPoint x="520" y="220" as="targetPoint" />
            <mxPoint as="offset" />
            <Array as="points">
              <mxPoint x="420" y="170" />
            </Array>
          </mxGeometry>
        </mxCell>
        <mxCell id="Fti2TQM5drp5zfrg5HiU-40" value="Display start game" style="html=1;verticalAlign=bottom;endArrow=open;dashed=1;endSize=8;entryX=0.5;entryY=0.205;entryDx=0;entryDy=0;entryPerimeter=0;" parent="1" source="Fti2TQM5drp5zfrg5HiU-9" edge="1" target="Fti2TQM5drp5zfrg5HiU-8">
          <mxGeometry x="-0.1845" y="-30" relative="1" as="geometry">
            <mxPoint x="300" y="460" as="targetPoint" />
            <mxPoint x="480" y="470" as="sourcePoint" />
            <Array as="points">
              <mxPoint x="450" y="430" />
            </Array>
            <mxPoint as="offset" />
          </mxGeometry>
        </mxCell>
        <mxCell id="Fti2TQM5drp5zfrg5HiU-95" value="&lt;font style=&quot;font-size: 11px&quot;&gt;&lt;span lang=&quot;EN-AU&quot; style=&quot;line-height: 115%&quot;&gt;5.1 display the maze,&lt;br&gt;food, Pac-man and monster&lt;/span&gt;&lt;/font&gt;" style="html=1;verticalAlign=bottom;endArrow=block;" parent="1" source="Fti2TQM5drp5zfrg5HiU-8" target="Fti2TQM5drp5zfrg5HiU-9" edge="1">
          <mxGeometry x="-0.0198" relative="1" as="geometry">
            <mxPoint x="435" y="1270" as="sourcePoint" />
            <mxPoint x="-1" as="offset" />
            <Array as="points">
              <mxPoint x="400" y="880" />
            </Array>
          </mxGeometry>
        </mxCell>
        <mxCell id="Fti2TQM5drp5zfrg5HiU-96" value="&lt;font style=&quot;font-size: 11px&quot;&gt;5.1.2&amp;nbsp;&lt;span lang=&quot;EN-AU&quot; style=&quot;line-height: 115%&quot;&gt;display the maze,&lt;br&gt;food, Pac-man and monste&lt;br&gt;Start gamer&lt;/span&gt;&lt;/font&gt;" style="html=1;verticalAlign=bottom;endArrow=open;dashed=1;endSize=8;" parent="1" source="Fti2TQM5drp5zfrg5HiU-9" target="Fti2TQM5drp5zfrg5HiU-7" edge="1">
          <mxGeometry x="0.0198" relative="1" as="geometry">
            <mxPoint x="435" y="1346" as="targetPoint" />
            <mxPoint x="1" as="offset" />
            <mxPoint x="505" y="1422" as="sourcePoint" />
            <Array as="points">
              <mxPoint x="400" y="960" />
            </Array>
          </mxGeometry>
        </mxCell>
        <mxCell id="Fti2TQM5drp5zfrg5HiU-111" value="7.1 Terminate session" style="html=1;verticalAlign=bottom;endArrow=block;" parent="1" source="Fti2TQM5drp5zfrg5HiU-8" target="Fti2TQM5drp5zfrg5HiU-9" edge="1">
          <mxGeometry x="0.0275" relative="1" as="geometry">
            <mxPoint x="445" y="1600" as="sourcePoint" />
            <mxPoint x="-1" as="offset" />
            <Array as="points">
              <mxPoint x="390" y="1200" />
            </Array>
          </mxGeometry>
        </mxCell>
        <mxCell id="Fti2TQM5drp5zfrg5HiU-112" value="7.1.2 Show home Screen" style="html=1;verticalAlign=bottom;endArrow=open;dashed=1;endSize=8;" parent="1" source="Fti2TQM5drp5zfrg5HiU-9" target="Fti2TQM5drp5zfrg5HiU-7" edge="1">
          <mxGeometry x="0.0979" relative="1" as="geometry">
            <mxPoint x="445" y="1676" as="targetPoint" />
            <mxPoint x="-1" as="offset" />
            <mxPoint x="515" y="1714" as="sourcePoint" />
            <Array as="points">
              <mxPoint x="330" y="1290" />
            </Array>
          </mxGeometry>
        </mxCell>
        <mxCell id="rWefZl4mdB9mLyS-mqyO-1" value="" style="html=1;points=[];perimeter=orthogonalPerimeter;" vertex="1" parent="1">
          <mxGeometry x="515" y="210" width="10" height="40" as="geometry" />
        </mxCell>
        <mxCell id="rWefZl4mdB9mLyS-mqyO-2" value="1.1.1 Show game dashboard" style="edgeStyle=orthogonalEdgeStyle;html=1;align=left;spacingLeft=2;endArrow=block;rounded=0;entryX=1;entryY=0;" edge="1" target="rWefZl4mdB9mLyS-mqyO-1" parent="1">
          <mxGeometry relative="1" as="geometry">
            <mxPoint x="525" y="180" as="sourcePoint" />
            <Array as="points">
              <mxPoint x="550" y="180" />
              <mxPoint x="550" y="210" />
            </Array>
          </mxGeometry>
        </mxCell>
        <mxCell id="rWefZl4mdB9mLyS-mqyO-3" value="1.1.2 Show game Dashboard" style="html=1;verticalAlign=bottom;endArrow=open;dashed=1;endSize=8;" edge="1" parent="1" source="Fti2TQM5drp5zfrg5HiU-9" target="Fti2TQM5drp5zfrg5HiU-7">
          <mxGeometry x="-0.0076" relative="1" as="geometry">
            <mxPoint x="310" y="470" as="targetPoint" />
            <mxPoint x="529.5000000000002" y="470" as="sourcePoint" />
            <Array as="points">
              <mxPoint x="420" y="230" />
            </Array>
            <mxPoint as="offset" />
          </mxGeometry>
        </mxCell>
        <mxCell id="rWefZl4mdB9mLyS-mqyO-4" value="Chose existing character" style="html=1;verticalAlign=bottom;startArrow=oval;endArrow=block;startSize=8;" edge="1" parent="1">
          <mxGeometry x="-0.078" relative="1" as="geometry">
            <mxPoint x="146.33333333333326" y="290.0000000000002" as="sourcePoint" />
            <mxPoint as="offset" />
            <mxPoint x="300" y="290" as="targetPoint" />
          </mxGeometry>
        </mxCell>
        <mxCell id="rWefZl4mdB9mLyS-mqyO-5" value="Game character exists" style="html=1;verticalAlign=bottom;endArrow=block;entryX=0;entryY=0;" edge="1" parent="1">
          <mxGeometry x="-0.0186" relative="1" as="geometry">
            <mxPoint x="300" y="330" as="sourcePoint" />
            <mxPoint x="515" y="330.0000000000002" as="targetPoint" />
            <Array as="points" />
            <mxPoint as="offset" />
          </mxGeometry>
        </mxCell>
        <mxCell id="rWefZl4mdB9mLyS-mqyO-14" value="" style="line;strokeWidth=1;fillColor=none;align=left;verticalAlign=middle;spacingTop=-1;spacingLeft=3;spacingRight=3;rotatable=0;labelPosition=right;points=[];portConstraint=eastwest;" vertex="1" parent="1">
          <mxGeometry x="90" y="460" width="670" height="8" as="geometry" />
        </mxCell>
        <mxCell id="rWefZl4mdB9mLyS-mqyO-15" value="else" style="html=1;" vertex="1" parent="1">
          <mxGeometry x="90" y="468" width="140" height="50" as="geometry" />
        </mxCell>
        <mxCell id="rWefZl4mdB9mLyS-mqyO-31" value="if" style="shape=umlFrame;whiteSpace=wrap;html=1;" vertex="1" parent="1">
          <mxGeometry x="90" y="270" width="670" height="530" as="geometry" />
        </mxCell>
        <mxCell id="rWefZl4mdB9mLyS-mqyO-32" value="5.0 Select maze type and play" style="html=1;verticalAlign=bottom;startArrow=circle;startFill=1;endArrow=open;startSize=6;endSize=8;" edge="1" parent="1">
          <mxGeometry x="0.0126" width="80" relative="1" as="geometry">
            <mxPoint x="140.00333333333325" y="840" as="sourcePoint" />
            <mxPoint x="298" y="840" as="targetPoint" />
            <Array as="points" />
            <mxPoint as="offset" />
          </mxGeometry>
        </mxCell>
        <mxCell id="rWefZl4mdB9mLyS-mqyO-34" value="" style="html=1;points=[];perimeter=orthogonalPerimeter;" vertex="1" parent="1">
          <mxGeometry x="520" y="915" width="10" height="40" as="geometry" />
        </mxCell>
        <mxCell id="rWefZl4mdB9mLyS-mqyO-35" value="5.1.1 display the maze, food, pacman and monster&lt;br&gt;Start game" style="edgeStyle=orthogonalEdgeStyle;html=1;align=left;spacingLeft=2;endArrow=block;rounded=0;entryX=1;entryY=0;" edge="1" target="rWefZl4mdB9mLyS-mqyO-34" parent="1">
          <mxGeometry relative="1" as="geometry">
            <mxPoint x="525" y="895" as="sourcePoint" />
            <Array as="points">
              <mxPoint x="555" y="895" />
            </Array>
          </mxGeometry>
        </mxCell>
        <mxCell id="rWefZl4mdB9mLyS-mqyO-38" value="6.0 Play Game" style="html=1;verticalAlign=bottom;endArrow=block;entryX=0;entryY=0;" edge="1" target="rWefZl4mdB9mLyS-mqyO-37" parent="1" source="Fti2TQM5drp5zfrg5HiU-7">
          <mxGeometry relative="1" as="geometry">
            <mxPoint x="225" y="1000" as="sourcePoint" />
          </mxGeometry>
        </mxCell>
        <mxCell id="rWefZl4mdB9mLyS-mqyO-41" value="6.1.1 Display game screen" style="html=1;verticalAlign=bottom;endArrow=block;entryX=0;entryY=0;" edge="1" target="rWefZl4mdB9mLyS-mqyO-40" parent="1" source="Fti2TQM5drp5zfrg5HiU-8">
          <mxGeometry relative="1" as="geometry">
            <mxPoint x="435" y="1020" as="sourcePoint" />
          </mxGeometry>
        </mxCell>
        <mxCell id="rWefZl4mdB9mLyS-mqyO-42" value="6.1.2 Game over" style="html=1;verticalAlign=bottom;endArrow=open;dashed=1;endSize=8;exitX=0;exitY=0.95;" edge="1" source="rWefZl4mdB9mLyS-mqyO-40" parent="1" target="Fti2TQM5drp5zfrg5HiU-8">
          <mxGeometry x="0.0186" y="-6" relative="1" as="geometry">
            <mxPoint x="435" y="1096" as="targetPoint" />
            <mxPoint as="offset" />
          </mxGeometry>
        </mxCell>
        <mxCell id="rWefZl4mdB9mLyS-mqyO-43" value="6.1.3 Game Over" style="html=1;verticalAlign=bottom;startArrow=circle;startFill=1;endArrow=open;startSize=6;endSize=8;" edge="1" parent="1" source="Fti2TQM5drp5zfrg5HiU-8" target="Fti2TQM5drp5zfrg5HiU-7">
          <mxGeometry x="0.0053" width="80" relative="1" as="geometry">
            <mxPoint x="220" y="1270" as="sourcePoint" />
            <mxPoint x="160" y="1110" as="targetPoint" />
            <Array as="points">
              <mxPoint x="220" y="1120" />
            </Array>
            <mxPoint as="offset" />
          </mxGeometry>
        </mxCell>
        <mxCell id="rWefZl4mdB9mLyS-mqyO-47" value="" style="html=1;points=[];perimeter=orthogonalPerimeter;" vertex="1" parent="1">
          <mxGeometry x="515" y="1240" width="10" height="40" as="geometry" />
        </mxCell>
        <mxCell id="rWefZl4mdB9mLyS-mqyO-48" value="7.1.1 Session destroyed&amp;nbsp;&lt;br&gt;Redirect to home Screen" style="edgeStyle=orthogonalEdgeStyle;html=1;align=left;spacingLeft=2;endArrow=block;rounded=0;entryX=1;entryY=0;" edge="1" target="rWefZl4mdB9mLyS-mqyO-47" parent="1">
          <mxGeometry relative="1" as="geometry">
            <mxPoint x="520" y="1220" as="sourcePoint" />
            <Array as="points">
              <mxPoint x="550" y="1220" />
            </Array>
          </mxGeometry>
        </mxCell>
      </root>
    </mxGraphModel>
  </diagram>
</mxfile>
